<svg width="43" height="42" viewBox="0 0 43 42" fill="none" xmlns="http://www.w3.org/2000/svg">
<path d="M31.4667 0H10.5333C4.73333 0 0 4.73333 0 10.5333V31.5C0 37.2667 4.73333 42 10.5333 42H31.5C37.3 42 42.0333 37.2667 42.0333 31.4667V10.5333C42 4.73333 37.2667 0 31.4667 0ZM14 34H8V16.6667H14V34ZM10.9667 14C9.26667 14 7.9 12.6333 7.9 10.9333C7.9 9.23333 9.26667 7.86667 10.9667 7.86667C12.6667 7.86667 14.0333 9.23333 14.0333 10.9333C14 12.6333 12.6333 14 10.9667 14ZM34.0333 34H34H29V25.6C29 23.5667 28.7333 20.9667 25.9667 20.9667C23.1333 20.9667 22.6667 23.1667 22.6667 25.4667V34H17.6667V16.6667H22.3333V19H22.4667C23.2 17.6667 24.9 16.6333 27.5667 16.6333C33.0667 16.6333 34.0333 19.8 34.0333 24.5V34Z" fill="white"/>
</svg>
