<svg width="13" height="19" viewBox="0 0 13 19" fill="none" xmlns="http://www.w3.org/2000/svg">
<path d="M10.8112 1.85543C9.57431 0.618348 8.08155 0 6.33331 0C4.58497 0 3.09239 0.618478 1.85544 1.85543C0.618522 3.09235 0 4.58497 0 6.3333C0 7.23227 0.136044 7.97025 0.408088 8.54752L4.92309 18.122C5.04683 18.3939 5.23863 18.6083 5.49837 18.7648C5.75815 18.9215 6.03644 19 6.33339 19C6.63026 19 6.90867 18.9215 7.16841 18.7648C7.4282 18.6083 7.6239 18.3939 7.75587 18.122L12.2582 8.54752C12.5304 7.97025 12.6665 7.23223 12.6665 6.3333C12.6667 4.58497 12.0483 3.09252 10.8112 1.85543ZM8.57213 8.57226C7.95374 9.19061 7.20749 9.49991 6.33331 9.49991C5.45912 9.49991 4.71287 9.19061 4.09431 8.57226C3.47583 7.9537 3.16652 7.20745 3.16652 6.33326C3.16652 5.45916 3.47583 4.71278 4.09431 4.09439C4.71287 3.47591 5.45925 3.16661 6.33331 3.16661C7.20749 3.16661 7.95374 3.47591 8.57213 4.09439C9.19057 4.71274 9.49987 5.45916 9.49987 6.33326C9.49987 7.20736 9.19061 7.95357 8.57213 8.57226Z" fill="#EFE60B"/>
</svg>
