<svg width="22" height="16" viewBox="0 0 22 16" fill="none" xmlns="http://www.w3.org/2000/svg">
<path d="M1.87183 0H20.0229C20.9914 0.00132443 21.7995 0.737487 21.887 1.69858L12.1611 9.91623C11.4641 10.5085 10.4384 10.5089 9.74092 9.91711L0.00753386 1.70631C0.0908445 0.742122 0.900242 0.00132443 1.87183 0V0ZM1.87183 16C1.46215 16.0004 1.06376 15.8662 0.738496 15.6181L6.16676 10.0866C6.26735 9.98576 6.3059 9.83897 6.26779 9.70211C6.22968 9.56503 6.12089 9.45908 5.98263 9.4242C5.84415 9.38933 5.69769 9.43105 5.59887 9.53369L0.221128 15.0135C0.0757777 14.7436 -0.000221088 14.4418 4.83097e-07 14.1352V2.73671L9.22776 10.5211C10.2213 11.3636 11.6819 11.3632 12.6747 10.5195L21.8947 2.72921V14.1352C21.8952 14.4429 21.8185 14.7458 21.6721 15.0164L16.2622 9.53281C16.1082 9.37829 15.858 9.37674 15.7021 9.52927C15.5463 9.68203 15.5434 9.93124 15.6958 10.0873L21.154 15.6199C20.829 15.8669 20.4317 16.0004 20.0229 16H1.87183Z" fill="#EFE60B"/>
</svg>
