<svg width="101" height="122" viewBox="0 0 101 122" fill="none" xmlns="http://www.w3.org/2000/svg">
<path fill-rule="evenodd" clip-rule="evenodd" d="M53.8839 43.0817C52.7728 42.9807 51.6111 42.9302 50.5 42.9302C49.7929 42.9302 49.1364 42.9302 48.4293 42.9807C39.8937 43.3847 31.9643 46.3141 25.449 51.0112L0.448468 5.60618C-0.157605 4.44454 -0.157605 3.03037 0.498974 1.86873C1.20606 0.707085 2.41821 0 3.78187 0H26.5096C27.8733 0 29.0854 0.707085 29.7925 1.86873L51.0556 38.2331L53.8839 43.0817ZM100.552 5.60618L75.5511 51.0112C72.0157 48.4354 68.0762 46.4151 63.8337 45.0514L55.3487 30.5057L71.1571 1.96974C71.8642 0.757591 73.1268 0 74.4905 0H97.2182C98.5819 0 99.794 0.707085 100.501 1.86873C101.158 3.03037 101.158 4.44454 100.552 5.60618ZM15.1455 85.8604C15.1455 66.365 31.0045 50.5061 50.4998 50.5061C69.9952 50.5061 85.8541 66.365 85.8541 85.8604C85.8541 105.356 69.9952 121.215 50.4998 121.215C31.0045 121.215 15.1455 105.356 15.1455 85.8604ZM62.7526 91.6787L69.6265 84.6331C70.6164 83.6179 70.9598 82.128 70.5053 80.7845C70.0558 79.436 68.8891 78.4562 67.485 78.244L58.1363 76.8147L53.9241 67.8398C52.6817 65.1781 48.3129 65.1781 47.0704 67.8398L42.8582 76.8147L33.5096 78.244C32.1004 78.4612 30.9388 79.436 30.4893 80.7845C30.0347 82.128 30.3782 83.6179 31.3681 84.6331L38.242 91.6787L36.6106 101.669C36.3834 103.098 36.9844 104.538 38.1713 105.376C39.3531 106.214 40.9188 106.295 42.1865 105.593L50.4998 100.997L58.8131 105.588C59.3838 105.906 60.0152 106.063 60.6465 106.063C61.4091 106.063 62.1768 105.83 62.8233 105.376C64.0152 104.538 64.6163 103.098 64.3839 101.669L62.7526 91.6787Z" fill="white"/>
</svg>
