<svg width="31" height="18" viewBox="0 0 31 18" fill="none" xmlns="http://www.w3.org/2000/svg">
<path fill-rule="evenodd" clip-rule="evenodd" d="M29.7083 4H1.29175C0.578613 4 0 3.104 0 2C0 0.895996 0.578613 0 1.29175 0H29.7083C30.4214 0 31 0.895996 31 2C31 3.104 30.4214 4 29.7083 4ZM29.7083 11H1.29175C0.578613 11 0 10.104 0 9C0 7.896 0.578613 7 1.29175 7H29.7083C30.4214 7 31 7.896 31 9C31 10.104 30.4214 11 29.7083 11ZM1.29175 18H29.7083C30.4214 18 31 17.104 31 16C31 14.896 30.4214 14 29.7083 14H1.29175C0.578613 14 0 14.896 0 16C0 17.104 0.578613 18 1.29175 18Z" fill="white"/>
</svg>
